<svg xmlns="http://www.w3.org/2000/svg" width="1024" height="1024" viewBox="0 0 1024 1024">
  <rect x="56" y="56" width="912" height="912" rx="210" fill="#0d172a"/>
  <path d="M170 210 L860 90 L790 290 L120 390 Z" fill="#1d4ed8" opacity="0.55"/>
  <ellipse cx="445" cy="430" rx="220" ry="220" fill="none" stroke="#f8fafc" stroke-width="34"/>
  <ellipse cx="445" cy="430" rx="180" ry="180" fill="none" stroke="#bae6fd" stroke-width="6" opacity="0.55"/>
  <g stroke="#bae6fd" stroke-width="5" opacity="0.45">
    <line x1="340" y1="285" x2="340" y2="575"/>
    <line x1="395" y1="265" x2="395" y2="595"/>
    <line x1="450" y1="252" x2="450" y2="608"/>
    <line x1="505" y1="265" x2="505" y2="595"/>
    <line x1="560" y1="285" x2="560" y2="575"/>
    <line x1="285" y1="340" x2="605" y2="340"/>
    <line x1="265" y1="395" x2="625" y2="395"/>
    <line x1="250" y1="450" x2="640" y2="450"/>
    <line x1="265" y1="505" x2="625" y2="505"/>
    <line x1="285" y1="560" x2="605" y2="560"/>
  </g>
  <path d="M603 594 L683 674 L496 862 L416 782 Z" fill="#8b4513"/>
  <rect x="406" y="776" width="114" height="115" rx="28" fill="#38bdf8"/>
  <path d="M710 214 L811 374 L612 374 Z" fill="#f8fafc"/>
  <ellipse cx="710" cy="394" rx="43" ry="39" fill="#ffffff"/>
  <g stroke="#93c5fd" stroke-width="8" opacity="0.8">
    <line x1="710" y1="235" x2="670" y2="374"/>
    <line x1="710" y1="235" x2="690" y2="374"/>
    <line x1="710" y1="235" x2="710" y2="374"/>
    <line x1="710" y1="235" x2="730" y2="374"/>
    <line x1="710" y1="235" x2="750" y2="374"/>
  </g>
</svg>